<?xml version="1.0" encoding="utf-8"?>
<svg xmlns="http://www.w3.org/2000/svg">
  <defs>
    <symbol id="javascript" viewBox="0 0 128 128">
        <path fill="currentColor" d="M2 1v125h125V1H2zm66.119 106.513c-1.845 3.749-5.367 6.212-9.448 7.401-6.271 1.44-12.269.619-16.731-2.059-2.986-1.832-5.318-4.652-6.901-7.901l9.52-5.83c.083.035.333.487.667 1.071 1.214 2.034 2.261 3.474 4.319 4.485 2.022.69 6.461 1.131 8.175-2.427 1.047-1.81.714-7.628.714-14.065C58.433 78.073 58.48 68 58.48 58h11.709c0 11 .06 21.418 0 32.152.025 6.58.596 12.446-2.07 17.361zm48.574-3.308c-4.07 13.922-26.762 14.374-35.83 5.176-1.916-2.165-3.117-3.296-4.26-5.795 4.819-2.772 4.819-2.772 9.508-5.485 2.547 3.915 4.902 6.068 9.139 6.949 5.748.702 11.531-1.273 10.234-7.378-1.333-4.986-11.77-6.199-18.873-11.531-7.211-4.843-8.901-16.611-2.975-23.335 1.975-2.487 5.343-4.343 8.877-5.235l3.688-.477c7.081-.143 11.507 1.727 14.756 5.355.904.916 1.642 1.904 3.022 4.045-3.772 2.404-3.76 2.381-9.163 5.879-1.154-2.486-3.069-4.046-5.093-4.724-3.142-.952-7.104.083-7.926 3.403-.285 1.023-.226 1.975.227 3.665 1.273 2.903 5.545 4.165 9.377 5.926 11.031 4.474 14.756 9.271 15.672 14.981.882 4.916-.213 8.105-.38 8.581z">
        </path>
    </symbol>
    <symbol id="typescript" viewBox="0 0 128 128" role="graphics-symbol">
        <path fill="currentColor"
            d="M2 63.91v62.5h125v-125H2zm100.73-5a15.56 15.56 0 017.82 4.5 20.58 20.58 0 013 4c0 .16-5.4 3.81-8.69 5.85-.12.08-.6-.44-1.13-1.23a7.09 7.09 0 00-5.87-3.53c-3.79-.26-6.23 1.73-6.21 5a4.58 4.58 0 00.54 2.34c.83 1.73 2.38 2.76 7.24 4.86 8.95 3.85 12.78 6.39 15.16 10 2.66 4 3.25 10.46 1.45 15.24-2 5.2-6.9 8.73-13.83 9.9a38.32 38.32 0 01-9.52-.1A23 23 0 0180 109.19c-1.15-1.27-3.39-4.58-3.25-4.82a9.34 9.34 0 011.15-.73l4.6-2.64 3.59-2.08.75 1.11a16.78 16.78 0 004.74 4.54c4 2.1 9.46 1.81 12.16-.62a5.43 5.43 0 00.69-6.92c-1-1.39-3-2.56-8.59-5-6.45-2.78-9.23-4.5-11.77-7.24a16.48 16.48 0 01-3.43-6.25 25 25 0 01-.22-8c1.33-6.23 6-10.58 12.82-11.87a31.66 31.66 0 019.49.26zm-29.34 5.24v5.12H57.16v46.23H45.65V69.26H29.38v-5a49.19 49.19 0 01.14-5.16c.06-.08 10-.12 22-.1h21.81z">
        </path>
    </symbol>
    <symbol id="react" viewBox="0 0 128 128">
        <g fill="currentColor">
            <circle cx="64" cy="64" r="11.4"></circle>
            <path
                d="M107.3 45.2c-2.2-.8-4.5-1.6-6.9-2.3.6-2.4 1.1-4.8 1.5-7.1 2.1-13.2-.2-22.5-6.6-26.1-1.9-1.1-4-1.6-6.4-1.6-7 0-15.9 5.2-24.9 13.9-9-8.7-17.9-13.9-24.9-13.9-2.4 0-4.5.5-6.4 1.6-6.4 3.7-8.7 13-6.6 26.1.4 2.3.9 4.7 1.5 7.1-2.4.7-4.7 1.4-6.9 2.3C8.2 50 1.4 56.6 1.4 64s6.9 14 19.3 18.8c2.2.8 4.5 1.6 6.9 2.3-.6 2.4-1.1 4.8-1.5 7.1-2.1 13.2.2 22.5 6.6 26.1 1.9 1.1 4 1.6 6.4 1.6 7.1 0 16-5.2 24.9-13.9 9 8.7 17.9 13.9 24.9 13.9 2.4 0 4.5-.5 6.4-1.6 6.4-3.7 8.7-13 6.6-26.1-.4-2.3-.9-4.7-1.5-7.1 2.4-.7 4.7-1.4 6.9-2.3 12.5-4.8 19.3-11.4 19.3-18.8s-6.8-14-19.3-18.8zM92.5 14.7c4.1 2.4 5.5 9.8 3.8 20.3-.3 2.1-.8 4.3-1.4 6.6-5.2-1.2-10.7-2-16.5-2.5-3.4-4.8-6.9-9.1-10.4-13 7.4-7.3 14.9-12.3 21-12.3 1.3 0 2.5.3 3.5.9zM81.3 74c-1.8 3.2-3.9 6.4-6.1 9.6-3.7.3-7.4.4-11.2.4-3.9 0-7.6-.1-11.2-.4-2.2-3.2-4.2-6.4-6-9.6-1.9-3.3-3.7-6.7-5.3-10 1.6-3.3 3.4-6.7 5.3-10 1.8-3.2 3.9-6.4 6.1-9.6 3.7-.3 7.4-.4 11.2-.4 3.9 0 7.6.1 11.2.4 2.2 3.2 4.2 6.4 6 9.6 1.9 3.3 3.7 6.7 5.3 10-1.7 3.3-3.4 6.6-5.3 10zm8.3-3.3c1.5 3.5 2.7 6.9 3.8 10.3-3.4.8-7 1.4-10.8 1.9 1.2-1.9 2.5-3.9 3.6-6 1.2-2.1 2.3-4.2 3.4-6.2zM64 97.8c-2.4-2.6-4.7-5.4-6.9-8.3 2.3.1 4.6.2 6.9.2 2.3 0 4.6-.1 6.9-.2-2.2 2.9-4.5 5.7-6.9 8.3zm-18.6-15c-3.8-.5-7.4-1.1-10.8-1.9 1.1-3.3 2.3-6.8 3.8-10.3 1.1 2 2.2 4.1 3.4 6.1 1.2 2.2 2.4 4.1 3.6 6.1zm-7-25.5c-1.5-3.5-2.7-6.9-3.8-10.3 3.4-.8 7-1.4 10.8-1.9-1.2 1.9-2.5 3.9-3.6 6-1.2 2.1-2.3 4.2-3.4 6.2zM64 30.2c2.4 2.6 4.7 5.4 6.9 8.3-2.3-.1-4.6-.2-6.9-.2-2.3 0-4.6.1-6.9.2 2.2-2.9 4.5-5.7 6.9-8.3zm22.2 21l-3.6-6c3.8.5 7.4 1.1 10.8 1.9-1.1 3.3-2.3 6.8-3.8 10.3-1.1-2.1-2.2-4.2-3.4-6.2zM31.7 35c-1.7-10.5-.3-17.9 3.8-20.3 1-.6 2.2-.9 3.5-.9 6 0 13.5 4.9 21 12.3-3.5 3.8-7 8.2-10.4 13-5.8.5-11.3 1.4-16.5 2.5-.6-2.3-1-4.5-1.4-6.6zM7 64c0-4.7 5.7-9.7 15.7-13.4 2-.8 4.2-1.5 6.4-2.1 1.6 5 3.6 10.3 6 15.6-2.4 5.3-4.5 10.5-6 15.5C15.3 75.6 7 69.6 7 64zm28.5 49.3c-4.1-2.4-5.5-9.8-3.8-20.3.3-2.1.8-4.3 1.4-6.6 5.2 1.2 10.7 2 16.5 2.5 3.4 4.8 6.9 9.1 10.4 13-7.4 7.3-14.9 12.3-21 12.3-1.3 0-2.5-.3-3.5-.9zM96.3 93c1.7 10.5.3 17.9-3.8 20.3-1 .6-2.2.9-3.5.9-6 0-13.5-4.9-21-12.3 3.5-3.8 7-8.2 10.4-13 5.8-.5 11.3-1.4 16.5-2.5.6 2.3 1 4.5 1.4 6.6zm9-15.6c-2 .8-4.2 1.5-6.4 2.1-1.6-5-3.6-10.3-6-15.6 2.4-5.3 4.5-10.5 6-15.5 13.8 4 22.1 10 22.1 15.6 0 4.7-5.8 9.7-15.7 13.4z">
            </path>
        </g>
    </symbol>
    <symbol id="nextjs" viewBox="0 0 128 128">
        <path fill="currentColor"
            d="M64 0A64 64 0 0 0 0 64a64 64 0 0 0 64 64 64 64 0 0 0 35.508-10.838L47.014 49.34v40.238H38.4V38.4h10.768l57.125 73.584A64 64 0 0 0 128 64 64 64 0 0 0 64 0Zm17.777 38.4h8.534v48.776L81.777 75.97Zm24.18 73.92-.111.096a64 64 0 0 0 .111-.096z">
        </path>
    </symbol>
    <symbol id="nodejs" viewBox="0 0 128 128">
        <path fill="currentColor"
            d="m86.07 24.66a0.71 0.71 0 0 0-0.3516 0.08984 0.755 0.755 0 0 0-0.375 0.6367v18.93a0.564 0.564 0 0 1-0.2637 0.4648 0.549 0.549 0 0 1-0.5195 0l-3.066-1.773a1.486 1.486 0 0 0-1.479 0l-12.27 7.135a1.48 1.48 0 0 0-0.7539 1.279v14.24c0 0.524 0.2909 1.021 0.7539 1.283l12.27 7.135a1.486 1.486 0 0 0 1.477 0l12.27-7.135c0.463-0.262 0.7539-0.7592 0.7539-1.283v-35.5c0-0.553-0.2909-1.051-0.7539-1.311l-7.32-4.104a0.836 0.836 0 0 0-0.373-0.08984zm-72.39 17.77c-0.23 0-0.4601 0.08717-0.6621 0.2012l-12.27 7.107a1.493 1.493 0 0 0-0.7539 1.309l0.0293 19.1c0 0.263 0.143 0.5256 0.375 0.6426a0.656 0.656 0 0 0 0.7246 0l7.295-4.193a1.48 1.48 0 0 0 0.75-1.281v-8.939c0-0.524 0.2899-1.021 0.7539-1.283l3.096-1.805a1.39 1.39 0 0 1 0.752-0.2031c0.26 0 0.5216 0.05713 0.7246 0.2031l3.096 1.805c0.463 0.262 0.7539 0.7592 0.7539 1.283v8.939c0 0.522 0.288 1.021 0.75 1.281l7.236 4.193a0.704 0.704 0 0 0 0.752 0 0.724 0.724 0 0 0 0.377-0.6426v-19.1c0-0.524-0.2899-1.02-0.7539-1.283l-12.24-7.133a1.763 1.763 0 0 0-0.6641-0.2012h-0.1211zm100.7 0.207v0.001953l-0.00195 0.001953c-0.253 0-0.5043 0.06527-0.7363 0.1973l-12.27 7.131c-0.463 0.264-0.75 0.7582-0.75 1.283v14.24c0 0.524 0.287 1.02 0.75 1.281l12.18 6.988a1.43 1.43 0 0 0 1.447 0l7.381-4.133a0.724 0.724 0 0 0 0.375-0.6426 0.724 0.724 0 0 0-0.375-0.6406l-12.33-7.135a0.76 0.76 0 0 1-0.375-0.6465v-4.455a0.72 0.72 0 0 1 0.375-0.6367l3.855-2.213a0.705 0.705 0 0 1 0.752 0l3.844 2.213a0.762 0.762 0 0 1 0.377 0.6367v3.494c0 0.263 0.144 0.5246 0.375 0.6406a0.704 0.704 0 0 0 0.7539 0l7.291-4.279a1.46 1.46 0 0 0 0.7285-1.279v-3.465c0-0.524-0.2935-1.02-0.7285-1.283l-12.18-7.1a1.499 1.499 0 0 0-0.7402-0.2012h-0.00195zm-67.19 0.2344c-0.1712 0.02912-0.3392 0.08545-0.4941 0.1758l-11.87 6.893 13.15 24.26c0.0696-0.02714 0.1393-0.05957 0.2051-0.09766l12.26-7.121c0.1751-0.102 0.3237-0.237 0.4414-0.3945l-13.69-23.72zm1.283 0.3496 8.127 14.09 3.855-7.131c-0.007358-0.004457-0.01403-0.009333-0.02148-0.01367l-11.96-6.941zm-14.42 7.268c-0.2244 0.2655-0.3555 0.6048-0.3555 0.9629v14.24c0 0.1761 0.03375 0.3452 0.0918 0.5059l4.525-7.848-4.262-7.865zm27.04 0.4824-3.943 7.287 4.025 6.977v-13.78c0-0.1668-0.0298-0.3272-0.08203-0.4805zm19.69 2.303c0.065 0 0.1295 0.01492 0.1895 0.04492l4.193 2.447c0.116 0.058 0.1758 0.2014 0.1758 0.3184v4.893c0 0.146-0.06078 0.2643-0.1758 0.3223l-4.195 2.445a0.431 0.431 0 0 1-0.377 0l-4.195-2.443c-0.116-0.058-0.1758-0.2053-0.1758-0.3223v-4.893c0-0.146 0.06078-0.2613 0.1758-0.3203l4.195-2.447a0.425 0.425 0 0 1 0.1895-0.04492zm33.55 1.98a0.26 0.26 0 0 0-0.1445 0.04492l-2.346 1.369a0.3 0.3 0 0 0-0.1426 0.2598v2.74c0 0.116 0.05558 0.2037 0.1426 0.2617l2.346 1.369a0.262 0.262 0 0 0 0.2891 0l2.344-1.369a0.308 0.308 0 0 0 0.1445-0.2617v-2.738a0.303 0.303 0 0 0-0.1445-0.2598l-2.344-1.371a0.26 0.26 0 0 0-0.1445-0.04297v-0.001953zm-75.5 4.066-4.414 7.654c0.004874 0.002915 0.008757 0.006903 0.01367 0.009766l12.25 7.121c0.06838 0.03947 0.1405 0.0719 0.2129 0.09961l-8.066-14.88zm24.41 12.32c-0.427 0-0.8528 0.1007-1.215 0.3047l-11.55 6.73a2.457 2.457 0 0 0-1.215 2.125v13.42c0 0.874 0.4628 1.689 1.215 2.127l3.041 1.746c1.475 0.728 1.995 0.7227 2.66 0.7227 2.17 0 3.416-1.337 3.416-3.637v-13.24a0.356 0.356 0 0 0-0.3457-0.3516h-1.475a0.356 0.356 0 0 0-0.3516 0.3516v13.25c0 1.019-1.066 2.039-2.773 1.166l-3.156-1.834c-0.116-0.058-0.1738-0.2063-0.1738-0.3223v-13.43c0-0.116 0.05783-0.2633 0.1738-0.3203l11.54-6.695c0.087-0.058 0.2316-0.058 0.3496 0l11.54 6.695c0.115 0.06 0.1758 0.1763 0.1758 0.3203v13.42c0 0.145-0.05978 0.2643-0.1758 0.3223l-11.55 6.727c-0.087 0.058-0.2316 0.058-0.3496 0l-2.949-1.777c-0.088-0.058-0.205-0.0853-0.291-0.0293-0.81 0.468-0.9524 0.5271-1.734 0.7891-0.174 0.058-0.4628 0.1722 0.1152 0.4922l3.852 2.303c0.376 0.203 0.7798 0.3184 1.215 0.3184 0.434 0 0.8659-0.1148 1.213-0.2598l11.55-6.727a2.463 2.463 0 0 0 1.215-2.129v-13.42c0-0.874-0.4628-1.686-1.215-2.123l-11.55-6.73a2.488 2.488 0 0 0-1.213-0.3047v-0.001953zm18.03 6.129a2.236 2.236 0 0 0-2.227 2.244 2.236 2.236 0 0 0 2.227 2.242c1.217 0 2.23-1.02 2.23-2.242a2.254 2.254 0 0 0-2.23-2.242v-0.001953zm-0.0293 0.377h0.001953a1.86 1.86 0 0 1 1.883 1.867c0 1.02-0.8408 1.891-1.883 1.891-1.012 0-1.854-0.8426-1.854-1.891 0-1.048 0.8696-1.865 1.852-1.867zm-0.8105 0.6133v2.561h0.4941v-1.014h0.4375c0.174 0 0.2298 0.05812 0.2598 0.2031 0 0.03 0.08594 0.6692 0.08594 0.7852h0.5195c-0.06-0.116-0.08623-0.4679-0.1152-0.6719-0.028-0.32-0.0563-0.5511-0.4043-0.5801 0.174-0.059 0.4609-0.1453 0.4609-0.6113 0-0.67-0.5801-0.6699-0.8691-0.6699l-0.8691-0.001953zm0.4375 0.4082h0.4023c0.146 0 0.3789-3.91e-4 0.3789 0.3496 0 0.116-0.05891 0.3496-0.3789 0.3496h-0.4023v-0.6992zm-14.47 2.01c-3.3 0-5.271 1.399-5.271 3.758 0 2.534 1.968 3.229 5.123 3.549 3.79 0.38 4.08 0.9344 4.08 1.691 0 1.31-1.042 1.861-3.473 1.861-3.068 0-3.735-0.7568-3.967-2.299 0-0.176-0.1405-0.291-0.3145-0.291h-1.504a0.35 0.35 0 0 0-0.3516 0.3516c0 1.98 1.045 4.307 6.111 4.307 3.645 0 5.754-1.456 5.754-4.02 0-2.503-1.68-3.175-5.238-3.641-3.59-0.466-3.965-0.7283-3.965-1.572 0-0.699 0.3205-1.629 2.98-1.629 2.375 0 3.273 0.524 3.621 2.125a0.34 0.34 0 0 0 0.3145 0.2637h1.535c0.087 0 0.1773-0.05723 0.2363-0.1152a0.476 0.476 0 0 0 0.08594-0.2637c-0.231-2.795-2.053-4.076-5.758-4.076z">
        </path>
    </symbol>
    <symbol id="nestjs" viewBox="0 0 128 128">
        <path fill="currentColor"
            d="M75.323.4c-.898 0-1.796.199-2.594.498 1.696 1.098 2.594 2.594 3.093 4.29 0 .2.1.4.1.599 0 .2.1.399.1.598.1 2.894-.799 3.293-1.397 4.989-.998 2.194-.698 4.589.499 6.484.1.2.2.5.399.699-1.297-8.38 5.686-9.578 6.983-12.172.1-2.294-1.795-3.79-3.292-4.888C77.718.599 76.52.399 75.324.399ZM85.8 2.194c-.1.798 0 .599-.1.998 0 .299 0 .598-.1.898-.1.299-.1.499-.2.798-.1.3-.199.499-.299.798-.1.2-.2.399-.3.698-.099.1-.199.3-.298.4-.1.1-.1.199-.2.299-.2.2-.3.498-.499.698l-.598.599c-.2.2-.4.399-.599.498-.698.5-1.496.898-2.195 1.397-.2.2-.499.3-.698.499-.2.2-.4.3-.599.499l-.598.598c-.2.2-.4.4-.5.699-.199.2-.299.499-.498.698-.1.3-.2.499-.399.798-.1.3-.2.5-.3.798-.1.3-.199.599-.199.798 0 .1 0 .3-.1.4 0 .1 0 .299-.1.399v1.396c0 .3 0 .5.1.798 0 .3.1.5.2.799s.2.498.3.798c.099.2.199.299.199.499l-7.583-2.894a53.157 53.157 0 0 0-3.79-.997c-.699-.2-1.397-.3-2.096-.5a61.927 61.927 0 0 0-5.986-.897h-.2c-1.995-.2-3.89-.3-5.885-.3-1.497 0-2.894.1-4.29.2-1.996.1-3.99.4-5.986.699l-1.497.299c-.997.2-1.995.399-2.993.698-.499.1-.997.3-1.496.4-.499.199-.998.398-1.397.598-.399.2-.698.3-1.097.499-.1 0-.1 0-.2.1-.3.199-.598.299-.898.498-.1 0-.2.1-.2.1-.398.2-.698.4-.997.499-.2.1-.499.2-.698.3-.1.099-.2.099-.3.199-.299.2-.598.299-.898.498-.299.2-.598.3-.798.5-.2.199-.499.299-.698.498 0 0-.1 0-.1.1-.2.1-.399.3-.598.499l-.1.1c-.2.1-.3.299-.499.399-.1 0-.1.1-.2.1-.199.1-.299.299-.498.398 0 .1-.1.1-.1.1l-.599.599-.1.1-.598.598s0 .1-.1.1l-.499.499c-.1.1-.2.1-.2.2l-.598.598c0 .1-.1.1-.1.2l-.798.797-.1.1c-.498.599-1.097 1.098-1.695 1.597-.599.498-1.198.997-1.896 1.496s-1.297.898-1.995 1.297c-.699.399-1.397.698-2.095.998-.699.299-1.397.598-2.095.798-1.397.3-2.794.898-3.991.997 0-.498-.3-.399-.599-.399-.299.1-.598.1-.798.2-.3.1-.499.2-.798.3a2.96 2.96 0 0 0-.798.398c-.2.2-.499.3-.698.5-.2.199-.5.398-.699.598-.2.2-.499.399-.698.598-.2.2-.4.4-.599.699-.2.299-.399.498-.499.798-.199.2-.299.499-.498.798-.1.3-.3.598-.4.898l-.299.898c-.1.299-.1.498-.2.798v.1c-.1.3-.1.698-.1.898.1-.1.1.1.1.299v.399c0 .2.1.399.1.598.1.2.1.4.2.599.099.2.199.399.398.599.1.2.3.399.4.598.199.2.398.4.598.499.2.2.399.4.598.499.798.698.998.898 1.996 1.496.2.1.299.2.499.3h.1v.2c0 .298.1.498.199.797.1.3.2.599.3.798l.298.599c0 .1.1.1.1.2.1.299.3.498.4.698.199.2.299.499.498.698l.599.599.598.598h.1c.2.2.399.3.599.5s.499.299.698.398c.2.1.499.3.798.4.2.1.4.199.698.199 0 0 .1 0 .1.1.1 0 .3.1.4.1-.1 1.795-.1 3.491.1 4.09.298.698 1.795-1.397 3.192-3.691-.2 2.294-.3 4.988 0 5.786.399.798 2.294-1.796 4.09-4.59 23.345-5.387 44.695 10.775 46.99 33.622-.4-3.592-4.79-5.587-6.884-5.088-.998 2.394-2.694 5.587-5.387 7.482.199-2.195.1-4.39-.3-6.584-.698 2.993-2.095 5.886-4.09 8.28-3.093.2-6.285-1.297-7.882-3.591-.1-.1-.2-.3-.299-.4-.1-.199-.2-.498-.3-.698-.1-.2-.199-.499-.199-.698v-1.197c0-.2.1-.5.2-.699s.1-.499.2-.698c.099-.2.199-.499.398-.698.599-1.597.599-2.894-.499-3.592l-.598-.3c-.1 0-.3-.099-.4-.099s-.199-.1-.299-.1c-.199-.1-.498-.1-.698-.2-.2-.1-.499-.1-.698-.1-.2 0-.5-.099-.699-.099h-.498c-.3 0-.5 0-.699.1-.2 0-.499.1-.698.1-.2.1-.499.1-.699.2-.199.099-.399.199-.698.298l-.599.3c-7.682 4.988-3.092 16.76 2.096 20.152-1.996.4-3.991.798-4.59 1.198l-.1.1c1.397.897 2.894 1.596 4.49 2.194 2.095.699 4.39 1.297 5.387 1.597 2.694.598 5.488.798 8.281.598 14.566-.998 26.538-12.171 28.732-26.737.1.3.1.598.2.898.1.598.2 1.197.3 1.895.1.3.1.599.1.898v.1c0 .3.099.599.099.898 0 .399.1.698.1 1.097v4.19c0 .3-.1.5-.1.799v.299c0 .3-.1.599-.1.998-.1.299-.1.598-.2.898v.1c-.1.299-.1.598-.199.897v.1c-.1.3-.1.599-.2.898v.1l-.299.898v.1c-.1.299-.2.698-.299.997-.1.3-.2.599-.4.998-.099.299-.199.698-.398.997-.1.3-.3.599-.4.998-.099.3-.299.599-.398.898 0 .1-.1.2-.1.2s0 .1-.1.1c-2.095 4.289-5.287 8.08-9.278 11.073-.3.2-.499.4-.798.599-.1.1-.2.1-.2.2-.2.199-.499.299-.698.498l.1.2c.498-.1.898-.1 1.396-.2.898-.1 1.696-.3 2.594-.499.2 0 .5-.1.699-.2.2 0 .299-.1.498-.1s.5-.099.699-.099c.2-.1.399-.1.598-.2 3.293-.797 6.485-1.895 9.578-3.192-5.288 7.183-12.271 12.97-20.452 16.76 3.791-.299 7.582-.897 11.273-1.995a52.469 52.469 0 0 0 31.127-24.941c-1.396 7.582-4.39 14.865-8.879 21.25 3.193-2.095 6.086-4.59 8.78-7.283 7.382-7.682 12.27-17.559 13.867-28.034 1.098 5.188 1.497 10.575.998 15.863 23.844-33.222 1.995-67.641-7.183-76.72 0-.1-.1-.1-.1-.2 0 .4 0 .798-.1 1.198-.1.798-.2 1.496-.3 2.194-.199.699-.398 1.497-.598 2.195-.2.699-.499 1.397-.798 2.095-.3.699-.599 1.397-.998 1.996s-.798 1.297-1.197 1.895c-.399.599-.898 1.197-1.397 1.796-.498.599-.997 1.097-1.596 1.696-.3.3-.598.599-.997.798-.3.2-.5.4-.799.698-.598.5-1.197.898-1.895 1.297-.599.4-1.297.799-1.995 1.098l-2.096.898c-.698.299-1.396.499-2.095.698-.698.2-1.496.4-2.195.499-.798.1-1.496.2-2.194.3-.5 0-1.098.099-1.597.099-.798 0-1.496-.1-2.194-.1-.799-.1-1.497-.2-2.195-.3a7.874 7.874 0 0 1-2.195-.598c.698-.1 1.496-.1 2.195-.299.798-.1 1.496-.3 2.195-.499.698-.2 1.496-.399 2.095-.698l2.095-.898c.698-.3 1.297-.698 1.995-1.097.599-.4 1.297-.898 1.896-1.297.598-.5 1.197-.998 1.696-1.497.598-.499 1.097-1.097 1.596-1.596.499-.599.998-1.197 1.397-1.796.1-.1.1-.2.2-.3.298-.498.697-1.097.997-1.595a18.56 18.56 0 0 0 .997-1.996c.3-.698.6-1.397.799-2.095l.598-2.095c.1-.798.3-1.496.3-2.195.1-.798.1-1.496.1-2.195 0-.498 0-1.097-.1-1.596-.1-.798-.2-1.496-.3-2.195-.1-.798-.3-1.496-.499-2.195-.2-.698-.499-1.396-.698-2.095-.3-.698-.599-1.396-.898-1.995-.399-.698-.698-1.297-1.097-1.995-.4-.599-.898-1.198-1.297-1.796-.499-.599-.998-1.098-1.497-1.696-.299-.3-.598-.599-.898-.798-1.496-1.197-2.993-2.195-4.589-3.193-.2-.1-.399-.2-.698-.3-1.297-1.096-2.295-1.396-3.292-1.795Z">
        </path>
    </symbol>
    <symbol id="prisma" viewBox="0 0 128 128">
        <path fill="currentColor"
            d="M66.457.014a6.308 6.308 0 0 0-5.812 3.028l-47.87 78.072a6.379 6.379 0 0 0 .048 6.748l23.568 37.186a6.387 6.387 0 0 0 7.22 2.683l68.012-20.407a6.37 6.37 0 0 0 3.96-8.765l-43.72-94.85A6.298 6.298 0 0 0 66.46.014Zm1.795 23.95a2.348 2.348 0 0 1 2.448 1.433l30.16 69.784a2.39 2.39 0 0 1-1.512 3.241l-46.996 14.024a2.39 2.39 0 0 1-3.024-2.76l16.83-83.812a2.353 2.353 0 0 1 2.099-1.91z">
        </path>
    </symbol>
    <symbol id="python" viewBox="0 0 128 128">
        <path fill="currentColor"
            d="M49.33 62h29.159C86.606 62 93 55.132 93 46.981V19.183c0-7.912-6.632-13.856-14.555-15.176-5.014-.835-10.195-1.215-15.187-1.191-4.99.023-9.612.448-13.805 1.191C37.098 6.188 35 10.758 35 19.183V30h29v4H23.776c-8.484 0-15.914 5.108-18.237 14.811-2.681 11.12-2.8 17.919 0 29.53C7.614 86.983 12.569 93 21.054 93H31V79.952C31 70.315 39.428 62 49.33 62zm-1.838-39.11c-3.026 0-5.478-2.479-5.478-5.545 0-3.079 2.451-5.581 5.478-5.581 3.015 0 5.479 2.502 5.479 5.581-.001 3.066-2.465 5.545-5.479 5.545zm74.789 25.921C120.183 40.363 116.178 34 107.682 34H97v12.981C97 57.031 88.206 65 78.489 65H49.33C41.342 65 35 72.326 35 80.326v27.8c0 7.91 6.745 12.564 14.462 14.834 9.242 2.717 17.994 3.208 29.051 0C85.862 120.831 93 116.549 93 108.126V97H64v-4h43.682c8.484 0 11.647-5.776 14.599-14.66 3.047-9.145 2.916-17.799 0-29.529zm-41.955 55.606c3.027 0 5.479 2.479 5.479 5.547 0 3.076-2.451 5.579-5.479 5.579-3.015 0-5.478-2.502-5.478-5.579 0-3.068 2.463-5.547 5.478-5.547z">
        </path>
    </symbol>
    <symbol id="django" viewBox="0 0 128 128">
        <path fill="currentColor"
            d="M59.448 0h20.93v96.88c-10.737 2.04-18.62 2.855-27.181 2.855-25.551-.001-38.87-11.551-38.87-33.705 0-21.338 14.135-35.2 36.015-35.2 3.398 0 5.98.272 9.106 1.087zm0 48.765c-2.446-.815-4.485-1.086-7.067-1.086-10.6 0-16.717 6.523-16.717 17.939 0 11.145 5.845 17.26 16.582 17.26 2.309 0 4.212-.136 7.202-.542z">
        </path>
        <path fill="currentColor"
            d="M113.672 32.321V80.84c0 16.717-1.224 24.735-4.893 31.666-3.398 6.661-7.883 10.873-17.124 15.494l-19.435-9.241c9.242-4.35 13.726-8.153 16.58-14 2.99-5.979 3.943-12.91 3.943-31.122V32.321zM92.742.111h20.93v21.474h-20.93z">
        </path>
    </symbol>
    <symbol id="php" viewBox="0 0 128 128">
        <path fill="currentColor"
            d="M64 30.332C28.654 30.332 0 45.407 0 64s28.654 33.668 64 33.668c35.345 0 64-15.075 64-33.668S99.346 30.332 64 30.332zm-5.982 9.81h7.293v.003l-1.745 8.968h6.496c4.087 0 6.908.714 8.458 2.139 1.553 1.427 2.017 3.737 1.398 6.93l-3.053 15.7h-7.408l2.902-14.929c.33-1.698.208-2.855-.365-3.473-.573-.617-1.793-.925-3.658-.925h-5.828L58.752 73.88h-7.291l6.557-33.738zM26.73 49.114h14.133c4.252 0 7.355 1.116 9.305 3.348 1.95 2.232 2.536 5.346 1.758 9.346-.32 1.649-.863 3.154-1.625 4.52-.763 1.364-1.76 2.613-2.99 3.745-1.468 1.373-3.098 2.353-4.891 2.936-1.794.585-4.08.875-6.858.875h-6.294l-1.745 8.97h-7.35l6.557-33.74zm57.366 0h14.13c4.252 0 7.353 1.116 9.303 3.348h.002c1.95 2.232 2.538 5.346 1.76 9.346-.32 1.649-.861 3.154-1.623 4.52-.763 1.364-1.76 2.613-2.992 3.745-1.467 1.373-3.098 2.353-4.893 2.936-1.794.585-4.077.875-6.855.875h-6.295l-1.744 8.97h-7.35l6.557-33.74zm-51.051 5.325-2.742 14.12h4.468c2.963 0 5.172-.556 6.622-1.673 1.45-1.116 2.428-2.981 2.937-5.592.485-2.507.264-4.279-.666-5.309-.93-1.032-2.79-1.547-5.584-1.547h-5.035zm57.363 0-2.744 14.12h4.47c2.965 0 5.17-.556 6.622-1.673 1.449-1.116 2.427-2.981 2.935-5.592.487-2.507.266-4.279-.664-5.309-.93-1.032-2.792-1.547-5.584-1.547h-5.035z">
        </path>
    </symbol>
    <symbol id="laravel" viewBox="0 0 128 128">
        <path fill="currentColor"
            d="M27.271.11c-.2.078-5.82 3.28-12.487 7.112-8.078 4.644-12.227 7.09-12.449 7.32-.19.225-.34.482-.438.76-.167.564-.179 82.985-.01 83.578.061.23.26.568.44.754.436.46 48.664 28.19 49.25 28.324.272.065.577.054.88-.03.658-.165 48.76-27.834 49.188-28.286.175-.195.375-.532.44-.761.084-.273.115-4.58.115-13.655v-13.26l11.726-6.735c11.056-6.357 11.733-6.755 12.017-7.191l.29-.47V43.287c0-15.548.03-14.673-.585-15.235-.165-.146-5.798-3.433-12.53-7.31L100.89 13.71h-1.359l-11.963 6.87c-6.586 3.788-12.184 7.027-12.457 7.203-.272.18-.597.512-.73.753l-.242.417-.054 13.455-.048 13.46-9.879 5.69c-5.434 3.124-9.957 5.71-10.053 5.734-.175.049-.187-1.232-.187-25.966V15.293l-.26-.447c-.326-.545 1.136.324-13.544-8.114C27.803-.348 28.098-.2 27.27.11zm11.317 10.307c5.15 2.955 9.364 5.4 9.364 5.43 0 .031-4.516 2.641-10.035 5.813l-10.041 5.765-10.023-5.764c-5.507-3.173-10.02-5.783-10.02-5.814 0-.03 4.505-2.64 10.013-5.805l9.999-5.752.69.376c3.357 1.907 6.708 3.824 10.053 5.751zm71.668 13.261c5.422 3.122 9.908 5.702 9.95 5.744.114.103-19.774 11.535-20.046 11.523-.272-.008-19.915-11.335-19.907-11.473.01-.157 19.773-11.527 19.973-11.496.091.022 4.607 2.59 10.03 5.702zM16.3 25.328l9.558 5.503.055 27.247.05 27.252.233.368c.122.194.352.459.52.581.158.115 5.477 3.146 11.818 6.724l11.52 6.506v11.527c0 6.326-.043 11.516-.097 11.516-.041 0-10-5.699-22.124-12.676L5.793 97.201l-.03-38.966-.019-38.954.49.271c.283.15 4.807 2.748 10.065 5.775zm33.754 19.18v25.109l-.387.253c-.525.332-19.667 11.335-19.732 11.335-.03 0-.054-11.336-.054-25.193l.012-25.182 10-5.752c5.499-3.165 10.034-5.733 10.088-5.714.039.024.073 11.34.073 25.144zm38.15-5.775 10.023 5.763V55.92c0 10.838-.011 11.42-.176 11.357-.107-.041-4.642-2.64-10.083-5.774l-9.91-5.69v-11.42c0-6.287.032-11.424.062-11.424.043 0 4.577 2.592 10.084 5.764zm34.164 5.587c0 6.254-.042 11.412-.084 11.462-.072.115-19.896 11.538-20.022 11.538-.031 0-.062-5.135-.062-11.423v-11.42l10-5.756c5.507-3.16 10.042-5.752 10.084-5.752.053 0 .084 5.105.084 11.351zM95.993 70.933 52.005 96.04 32.056 84.693S76 59.277 76.176 59.343zm2.215 14.827-.034 11.442-22.028 12.676c-12.12 6.976-22.082 12.675-22.132 12.675-.053 0-.095-4.658-.095-11.516V99.51l22.08-12.592c12.132-6.923 22.101-12.59 22.154-12.602.043 0 .062 5.148.054 11.443z">
        </path>
    </symbol>
    <symbol id="wordpress" viewBox="0 0 128 128">
        <path fill-rule="evenodd" clip-rule="evenodd" fill="currentColor"
            d="M64.094 126.224c34.275-.052 62.021-27.933 62.021-62.325 0-33.833-27.618-61.697-60.613-62.286C30.85.995 1.894 29.113 1.885 63.21c-.01 35.079 27.612 63.064 62.209 63.014zM63.993 4.63c32.907-.011 59.126 26.725 59.116 60.28-.011 31.679-26.925 58.18-59.092 58.187-32.771.007-59.125-26.563-59.124-59.608.002-32.193 26.766-58.848 59.1-58.859zM39.157 35.896c.538 1.793-.968 2.417-2.569 2.542-1.685.13-3.369.257-5.325.406 6.456 19.234 12.815 38.183 19.325 57.573.464-.759.655-.973.739-1.223 3.574-10.682 7.168-21.357 10.651-32.069.318-.977.16-2.271-.188-3.275-1.843-5.32-4.051-10.524-5.667-15.908-1.105-3.686-2.571-6.071-6.928-5.644-.742.073-1.648-1.524-2.479-2.349 1.005-.6 2.003-1.704 3.017-1.719a849.593 849.593 0 0126.618.008c1.018.017 2.016 1.15 3.021 1.765-.88.804-1.639 2.01-2.668 2.321-1.651.498-3.482.404-5.458.58l19.349 57.56c2.931-9.736 5.658-18.676 8.31-27.639 2.366-8.001.956-15.473-3.322-22.52-1.286-2.119-2.866-4.175-3.595-6.486-.828-2.629-1.516-5.622-1.077-8.259.745-4.469 4.174-6.688 8.814-7.113C74.333.881 34.431 9.317 19.728 34.922c5.66-.261 11.064-.604 16.472-.678 1.022-.013 2.717.851 2.957 1.652zm10.117 77.971c-.118.345-.125.729-.218 1.302 10.943 3.034 21.675 2.815 32.659-.886l-16.78-45.96c-5.37 15.611-10.52 30.575-15.661 45.544zm-8.456-2.078l-25.281-69.35c-11.405 22.278-2.729 56.268 25.281 69.35zm76.428-44.562c.802-10.534-2.832-25.119-5.97-27.125-.35 3.875-.106 8.186-1.218 12.114-2.617 9.255-5.817 18.349-8.899 27.468-3.35 9.912-6.832 19.779-10.257 29.666 16.092-9.539 24.935-23.618 26.344-42.123z">
        </path>
    </symbol>
    <symbol id="postgresql" viewBox="0 0 128 128">
        <path fill-rule="evenodd" clip-rule="evenodd" fill="currentColor"
            d="M123.258 76.784c-.45-2.918-2.901-4.829-5.752-4.958-1.032-.047-2.08.061-3.109.192-1.243.158-2.471.438-3.711.623-.857.128-1.726.187-2.582.275l-.021-.111c1.598-3.018 3.263-6.003 4.775-9.064 1.159-2.348 2.151-4.781 3.176-7.194 1.696-3.998 3.051-8.12 4.173-12.309 1.075-4.011 1.995-8.066 2.284-12.227.116-1.662.196-3.331.187-4.995-.008-1.327-.151-2.656-.284-3.979-.15-1.516-.608-2.953-1.242-4.336-.836-1.822-2.132-3.317-3.496-4.737-1.092-1.137-2.293-2.173-3.484-3.208-1.698-1.477-3.607-2.656-5.59-3.703a32.18 32.18 0 00-7.09-2.75c-1.493-.381-3.02-.664-4.532-.966-.544-.11-1.089-.337-1.633-.337H85.086c-.37 0-.737.191-1.11.233-2.452.273-4.875.735-7.228 1.464-.88.273-1.684.101-2.52.024-.641-.059-1.271-.231-1.912-.263-2.442-.122-4.887-.301-7.328-.275-2.339.024-4.654.409-6.918 1.052-1.895.538-3.749 1.195-5.447 2.191-.727.426-1.303.346-2.055.129-2.527-.729-5.072-1.414-7.639-1.989-1.6-.358-3.245-.536-4.879-.707a57.214 57.214 0 00-4.718-.294c-1.538-.033-3.087-.032-4.618.104a30.16 30.16 0 00-7.158 1.513 23.813 23.813 0 00-7.086 3.865c-2.167 1.715-3.905 3.809-5.303 6.2-1.473 2.523-2.483 5.224-3.111 8.061-.34 1.537-.555 3.117-.788 4.678-.073.486.732.972-.268 1.456v6.794c1 .452.208.903.266 1.356.139 1.089.262 2.187.446 3.268.291 1.711.636 3.417.988 5.117a324.86 324.86 0 001.546 7.111c.396 1.72.847 3.43 1.319 5.131.721 2.598 1.431 5.201 2.246 7.77.757 2.387 1.624 4.74 2.484 7.093 1.191 3.255 2.617 6.405 4.327 9.424 1.479 2.614 3.169 5.062 5.436 7.076 1.494 1.327 3.157 2.347 5.093 2.857 1.521.4 3.067.448 4.624.129a10.979 10.979 0 004.824-2.311c.163-.134.342-.236.535.01.735.931 1.719 1.552 2.748 2.089 2.777 1.448 5.803 1.882 8.877 2.059.744.043 1.496-.064 2.246-.085 1.461-.04 2.881-.325 4.278-.729.732-.212 1.447-.481 2.192-.732.039.793.089 1.557.112 2.321l.104 4.166c.019.634.044 1.27.103 1.901.151 1.627.299 3.255.493 4.877.135 1.118.275 2.245.538 3.336a38.176 38.176 0 002.158 6.428 13.81 13.81 0 003.9 5.185c2.22 1.836 4.822 2.619 7.632 2.764 1.162.061 2.357.004 3.501-.204a49.01 49.01 0 005.387-1.275c3.591-1.084 6.695-2.956 9.014-5.981 1.32-1.724 2.404-3.589 3.1-5.648.574-1.701 1.115-3.419 1.545-5.16.34-1.372.508-2.787.715-4.188.137-.927.219-1.863.305-2.797.14-1.517.283-3.033.384-4.553.07-1.058.067-2.121.109-3.181.013-.323.065-.644.095-.966.028-.298.178-.401.482-.396 1.071.016 2.144.044 3.212-.004 1.197-.054 2.405-.105 3.583-.303a56.542 56.542 0 004.99-1.067c1.943-.508 3.725-1.418 5.44-2.455 1.998-1.207 3.819-2.623 5.297-4.447 1.285-1.591 1.894-3.43 1.584-5.438zm-3.412.982c-.066.915-.485 1.699-1.093 2.369-2.869 3.163-6.468 5.082-10.585 6.027-1.564.358-3.178.544-4.779.692a32.093 32.093 0 01-4.114.097c-1.006-.038-2.004-.268-3.032-.416-.103.94-.201 1.919-.32 2.896l-.479 3.745c-.145 1.187-.258 2.378-.407 3.564-.146 1.151-.328 2.298-.481 3.449-.143 1.072-.248 2.149-.407 3.219-.245 1.64-.479 3.284-.799 4.911-.384 1.945-.973 3.829-1.934 5.583-1.172 2.141-2.834 3.772-4.949 4.98-2.18 1.246-4.563 1.894-6.979 2.436-1.71.384-3.472.447-5.204.291-3.004-.272-5.568-1.557-7.506-3.886-1.85-2.223-3.102-4.771-3.55-7.655a63.102 63.102 0 01-.491-4.136 108.067 108.067 0 01-.299-4.62 250.203 250.203 0 01-.197-5.871c-.053-2.406-.07-4.812-.104-7.218l-.006-.092c-1.224.734-2.427 1.538-3.703 2.2a12.392 12.392 0 01-4.798 1.353c-1.318.1-2.653.191-3.965.086-2.151-.173-4.3-.51-6.226-1.569-.781-.43-1.596-.953-2.134-1.64-1.29-1.646-.672-3.726 1.273-4.727 1.344-.693 2.811-.982 4.268-1.319a44.368 44.368 0 003.761-1.029c1.222-.4 1.993-1.391 2.754-2.363l1.206-1.551c-.503-.053-.977-.107-1.451-.151-1.439-.136-2.812-.532-4.125-1.114-1.124-.497-1.141-.551-1.965.343-1.376 1.494-2.714 3.023-4.062 4.542-.992 1.117-1.978 2.241-2.965 3.361-.978 1.108-1.894 2.279-2.947 3.31-1.564 1.531-3.449 2.452-5.698 2.348-1.443-.066-2.764-.572-3.952-1.399-2.452-1.708-4.104-4.097-5.608-6.606-1.927-3.215-3.406-6.64-4.672-10.159-.876-2.432-1.756-4.866-2.521-7.333-.831-2.681-1.56-5.396-2.277-8.11a157.373 157.373 0 01-1.482-6.182 216.117 216.117 0 01-1.464-7.079c-.298-1.599-.471-3.221-.712-4.831-.325-2.17-.385-4.36-.267-6.539.105-1.963.387-3.921.667-5.871.388-2.698 1.277-5.244 2.556-7.648.783-1.473 1.755-2.812 2.879-4.056 1.845-2.042 4.078-3.518 6.562-4.626 1.736-.774 3.57-1.24 5.439-1.604 2.774-.54 5.573-.519 8.373-.461 1.224.025 2.443.248 3.666.369 2.633.262 5.214.816 7.762 1.5 1.857.498 3.676 1.143 5.518 1.703.185.056.456.051.607-.048 2.496-1.629 5.224-2.704 8.125-3.319 1.101-.233 2.237-.335 3.363-.407 1.369-.087 2.749-.167 4.115-.088 1.642.094 3.276.336 4.908.56.792.108 1.565.383 2.359.458.38.036.783-.242 1.185-.335 2.049-.473 4.089-1 6.156-1.374 1.539-.278 3.111-.409 4.676-.499 1.745-.1 3.503-.173 5.247-.089a36.66 36.66 0 016.555.923c2.677.623 5.245 1.528 7.686 2.784 1.824.938 3.558 2.026 5.119 3.364 1.023.878 2.07 1.745 2.994 2.723 1.14 1.206 2.303 2.413 3.018 3.958.538 1.165.922 2.371 1.028 3.647.132 1.586.292 3.178.277 4.766-.014 1.519-.221 3.037-.368 4.552-.334 3.454-1.085 6.833-1.997 10.167a116.972 116.972 0 01-2.589 8.17c-.879 2.481-1.893 4.917-2.918 7.343a80.07 80.07 0 01-2.458 5.303c-1.677 3.286-3.421 6.538-5.438 9.633-.348.535-.678 1.083-1.018 1.629.88.594 1.877.803 2.881.911.955.104 1.929.166 2.883.095 1.527-.113 3.049-.331 4.567-.544 1.504-.21 2.978-.638 4.522-.525 1.542.112 2.645 1.284 2.54 2.729zm-22.013-3.353c-.655-.846-1.323-1.682-1.964-2.538-1.006-1.344-1.729-2.845-2.455-4.353-.688-1.429-1.532-2.782-2.257-4.195-1.265-2.465-2.553-4.922-3.718-7.435-1.465-3.157-2.62-6.426-2.984-9.923-.154-1.48-.193-2.958.106-4.424.479-2.341 1.702-4.172 3.758-5.428 1.907-1.165 4.032-1.541 6.209-1.659 1.351-.073 2.708-.013 4.11-.013l-.047-.237c-.872-1.823-1.687-3.677-2.641-5.457-1.346-2.512-3.068-4.777-4.986-6.877-1.421-1.555-2.96-2.998-4.646-4.273-1.658-1.255-3.405-2.376-5.269-3.293-2.223-1.093-4.538-1.938-6.967-2.477-2.334-.518-4.683-.835-7.077-.861-2.042-.022-4.071.07-6.06.531-3.002.695-5.748 1.931-8.137 3.933a21.143 21.143 0 00-3.517 3.77c-1.196 1.643-2.161 3.417-2.986 5.277-1.132 2.552-1.909 5.208-2.44 7.938-.266 1.361-.474 2.734-.686 4.106-.074.48-.08.971-.123 1.521.369-.192.635-.34.907-.472l.885-.397c2.993-1.369 6.094-2.25 9.427-2.149 1.416.043 2.771.323 4.03.943 2.415 1.191 3.828 3.216 4.442 5.779.424 1.769.714 3.573.996 5.372.221 1.405.447 2.825.473 4.242.037 2.071-.068 4.146-.181 6.216a17.386 17.386 0 01-1.08 5.146c-1.12 2.993-2.368 5.937-3.534 8.913-.385.983-.681 2.001-1.045 3.082.562 0 1.018-.004 1.474.002.178.003.36.008.532.049 1.34.316 2.502.923 3.455 1.954 1.271 1.372 1.938 2.973 1.972 4.826.019 1.027-.089 2.057-.084 3.084.021 4.786.057 9.572.097 14.357.007.782.046 1.565.102 2.346.117 1.635.235 3.271.395 4.902.112 1.157.268 2.312.451 3.461.259 1.628 1 3.077 1.841 4.462.724 1.191 1.665 2.203 2.905 2.901 2.107 1.186 4.376 1.285 6.663.848 1.545-.295 3.062-.769 4.562-1.258a10.128 10.128 0 003.937-2.354c1.051-1.019 1.797-2.261 2.3-3.632.976-2.659 1.28-5.459 1.684-8.237.151-1.04.282-2.083.42-3.125.157-1.186.316-2.371.468-3.556.112-.883.214-1.768.322-2.651.154-1.268.317-2.535.464-3.804.113-.981.209-1.966.309-2.949.129-1.256.268-2.512.379-3.77.086-.955.051-1.927.22-2.864.311-1.718 1.123-3.18 2.646-4.125.637-.395 1.356-.655 2.063-.989l-.12-.186zm-57.597-7.052a17.526 17.526 0 01-1.354-5.622c-.128-1.825.089-3.643.276-5.46.182-1.76.333-3.528.386-5.296.088-2.906-.108-5.808-.247-8.712-.084-1.729.117-3.479.271-5.212.139-1.561.312-3.126.607-4.664.495-2.581 1.152-5.125 2.086-7.591.887-2.338 1.906-4.615 3.345-6.665.986-1.406 2.105-2.72 3.18-4.094l-.319-.113c-3.498-1.111-7.053-1.979-10.709-2.358-1.729-.179-3.464-.284-5.198-.387-.532-.032-1.072.04-1.606.091-1.322.126-2.66.176-3.961.424-2.214.421-4.338 1.129-6.305 2.282-1.766 1.035-3.249 2.373-4.491 3.978-1.372 1.772-2.295 3.776-2.958 5.913-.783 2.521-1.156 5.115-1.257 7.733-.088 2.295-.132 4.603.264 6.889.295 1.702.492 3.422.817 5.117.443 2.311.918 4.617 1.467 6.904.785 3.274 1.569 6.553 2.499 9.787.89 3.099 1.894 6.17 2.982 9.204.89 2.476 1.919 4.906 3.003 7.304.706 1.562 1.561 3.065 2.457 4.528.953 1.553 2.037 3.027 3.508 4.154 1.856 1.423 3.293 1.644 5.179.083.808-.669 1.491-1.495 2.194-2.282 1.117-1.25 2.195-2.534 3.307-3.788 1.416-1.598 2.85-3.179 4.273-4.769.301-.336.59-.682.883-1.022l-.484-.425a17.695 17.695 0 01-4.095-5.931zm53.688-47.569a61.488 61.488 0 013.309 4.204c2 2.809 3.598 5.842 4.775 9.087.521 1.43.937 2.874.751 4.439-.129 1.096-.118 2.208-.215 3.31-.081.917-.226 1.829-.345 2.743-.178 1.378-.436 2.752-.513 4.136-.073 1.317.003 2.648.086 3.968.084 1.341.265 2.676.388 4.015.139 1.518.326 3.036.369 4.557.035 1.249-.076 2.506-.185 3.753-.13 1.502-.511 2.956-1.079 4.351-.399.982-.876 1.934-1.327 2.917l.181.192.275.213.277-.496a93.621 93.621 0 006.222-11.493 186.333 186.333 0 003.287-7.766c1.624-4.064 2.909-8.242 3.903-12.503.446-1.913.787-3.855 1.09-5.797.236-1.518.433-3.054.477-4.586.047-1.625-.043-3.263-.193-4.884-.112-1.224-.414-2.456-1.181-3.451-1.233-1.602-2.564-3.134-4.201-4.346-1.378-1.021-2.751-2.068-4.23-2.927-2.345-1.36-4.883-2.266-7.535-2.883-2.588-.603-5.21-.863-7.849-.918-1.556-.033-3.119.134-4.672.28-1.407.132-2.805.357-4.222.543 1.52.855 3.019 1.615 4.433 2.511 2.973 1.883 5.637 4.149 7.924 6.831zM55.299 72.514c.961-3.073 2.27-6.007 3.538-8.959 1.028-2.394 1.59-4.916 1.777-7.506.093-1.277.067-2.57.004-3.851a44.628 44.628 0 00-.392-4.259c-.266-1.801-.569-3.603-.995-5.371-.462-1.913-1.627-3.245-3.623-3.736-1.216-.299-2.424-.287-3.653-.093-3.002.473-5.75 1.579-8.31 3.199-.515.326-.798.589-.709 1.328.188 1.565.229 3.155.222 4.735-.01 2.236-.105 4.472-.19 6.707-.028.728-.133 1.452-.211 2.177-.12 1.11-.351 2.219-.344 3.327.007 1.142.124 2.311.401 3.417.88 3.507 2.744 6.377 5.799 8.402 1.879 1.245 3.958 1.873 6.24 1.992.155-.524.293-1.019.446-1.509zm-3.586-30.087c-.402-.844-.172-1.543.76-1.867.227-.08.461-.165.697-.188.324-.032.654-.008.982-.008 1.182.006 2.319.171 3.295.923.626.482.794 1.122.389 1.779-.575.932-1.452 1.4-2.529 1.49-1.697.141-2.888-.65-3.594-2.129zm47.04-.308c.136-1.124.245-2.251.384-3.375.056-.452-.182-.574-.561-.585-1.192-.033-2.384-.075-3.576-.097-1.344-.024-2.652.192-3.896.703-1.38.568-2.431 1.478-2.86 2.98a9.042 9.042 0 00-.293 3.41 20.11 20.11 0 001.193 5.176c.834 2.221 1.707 4.441 2.75 6.569 1.413 2.881 3.012 5.67 4.513 8.507.401.757.738 1.547 1.156 2.431a13.783 13.783 0 001.351-5.622c.041-1.61-.088-3.227-.182-4.838-.059-.986-.198-1.966-.294-2.95-.134-1.371-.337-2.741-.368-4.115-.031-1.397.068-2.802.188-4.197.113-1.338.334-2.665.495-3.997zm-2.689-1.082c-.443 1.223-1.39 1.913-2.618 2.116-1.145.188-2.148-.235-2.894-1.148-.531-.65-.328-1.42.468-1.859.914-.506 1.919-.634 3.104-.711.322.059.807.108 1.268.24.669.189.916.692.672 1.362zm-35.422 37.66c-.655-.535-1.521-.566-2.144.021-.773.73-1.453 1.565-2.133 2.388-.785.951-1.521 1.94-2.534 2.677-1.474 1.071-3.192 1.515-4.919 1.935-1.373.334-2.752.644-4.129.965l-.017.178c.409.189.805.425 1.231.56 2.1.665 4.236.996 6.455.808 1.602-.136 3.128-.485 4.574-1.171 1.99-.943 3.521-2.437 4.823-4.175.218-.29.317-.719.343-1.093.089-1.321-.582-2.303-1.55-3.093zm51.751.526c-1.69.181-3.382.373-5.077.47-.818.047-1.648-.109-2.474-.176-1.385-.112-2.737-.42-3.908-1.16-.678-.427-1.241-.475-1.961-.233-1.028.346-1.867.872-2.115 1.986-.169.753-.23 1.533-.298 2.304-.013.136.157.386.287.42.793.209 1.59.456 2.401.529.996.09 2.01.061 3.013.011 1.083-.054 2.173-.124 3.24-.304 2.515-.422 4.948-1.11 7.109-2.536.779-.515 1.551-1.041 2.325-1.562l-.064-.11c-.826.123-1.648.273-2.478.361z">
        </path>
    </symbol>
    <symbol id="mysql" viewBox="0 0 128 128">
        <path fill="currentColor"
            d="M117.688 98.242c-6.973-.191-12.297.461-16.852 2.379-1.293.547-3.355.559-3.566 2.18.711.746.82 1.859 1.387 2.777 1.086 1.754 2.922 4.113 4.559 5.352 1.789 1.348 3.633 2.793 5.551 3.961 3.414 2.082 7.223 3.27 10.504 5.352 1.938 1.23 3.859 2.777 5.75 4.164.934.684 1.563 1.75 2.773 2.18v-.195c-.637-.812-.801-1.93-1.387-2.777l-2.578-2.578c-2.52-3.344-5.719-6.281-9.117-8.719-2.711-1.949-8.781-4.578-9.91-7.73l-.199-.199c1.922-.219 4.172-.914 5.949-1.391 2.98-.797 5.645-.59 8.719-1.387l4.164-1.187v-.793c-1.555-1.594-2.664-3.707-4.359-5.152-4.441-3.781-9.285-7.555-14.273-10.703-2.766-1.746-6.184-2.883-9.117-4.363-.988-.496-2.719-.758-3.371-1.586-1.539-1.961-2.379-4.449-3.566-6.738-2.488-4.793-4.93-10.023-7.137-15.066-1.504-3.437-2.484-6.828-4.359-9.91-9-14.797-18.687-23.73-33.695-32.508-3.195-1.867-7.039-2.605-11.102-3.57l-6.543-.395c-1.332-.555-2.715-2.184-3.965-2.977C16.977 3.52 4.223-3.312.539 5.672-1.785 11.34 4.016 16.871 6.09 19.746c1.457 2.012 3.32 4.273 4.359 6.539.688 1.492.805 2.984 1.391 4.559 1.438 3.883 2.695 8.109 4.559 11.695.941 1.816 1.98 3.727 3.172 5.352.727.996 1.98 1.438 2.18 2.973-1.227 1.715-1.297 4.375-1.984 6.543-3.098 9.77-1.926 21.91 2.578 29.137 1.383 2.223 4.641 6.98 9.117 5.156 3.918-1.598 3.043-6.539 4.164-10.902.254-.988.098-1.715.594-2.379v.199l3.57 7.133c2.641 4.254 7.324 8.699 11.297 11.699 2.059 1.555 3.68 4.242 6.344 5.152v-.199h-.199c-.516-.805-1.324-1.137-1.98-1.781-1.551-1.523-3.277-3.414-4.559-5.156-3.613-4.902-6.805-10.27-9.711-15.855-1.391-2.668-2.598-5.609-3.77-8.324-.453-1.047-.445-2.633-1.387-3.172-1.281 1.988-3.172 3.598-4.164 5.945-1.582 3.754-1.789 8.336-2.375 13.082-.348.125-.195.039-.398.199-2.762-.668-3.73-3.508-4.758-5.949-2.594-6.164-3.078-16.09-.793-23.191.59-1.836 3.262-7.617 2.18-9.316-.516-1.691-2.219-2.672-3.172-3.965-1.18-1.598-2.355-3.703-3.172-5.551-2.125-4.805-3.113-10.203-5.352-15.062-1.07-2.324-2.875-4.676-4.359-6.738-1.645-2.289-3.484-3.977-4.758-6.742-.453-.984-1.066-2.559-.398-3.566.215-.684.516-.969 1.191-1.191 1.148-.887 4.352.297 5.547.793 3.18 1.32 5.832 2.578 8.527 4.363 1.289.855 2.598 2.512 4.16 2.973h1.785c2.789.641 5.914.195 8.523.988 4.609 1.402 8.738 3.582 12.488 5.949 11.422 7.215 20.766 17.48 27.156 29.734 1.027 1.973 1.473 3.852 2.379 5.945 1.824 4.219 4.125 8.559 5.941 12.688 1.816 4.113 3.582 8.27 6.148 11.695 1.348 1.801 6.551 2.766 8.918 3.766 1.66.699 4.379 1.43 5.949 2.379 3 1.809 5.906 3.965 8.723 5.945 1.402.992 5.73 3.168 5.945 4.957zm-88.605-75.52c-1.453-.027-2.48.156-3.566.395v.199h.195c.695 1.422 1.918 2.34 2.777 3.566l1.98 4.164.199-.195c1.227-.867 1.789-2.25 1.781-4.363-.492-.52-.562-1.164-.992-1.785-.562-.824-1.66-1.289-2.375-1.98zm0 0">
        </path>
    </symbol>
    <symbol id="sqlite" viewBox="0 0 128 128">
        <path fill="currentColor"
            d="M115.95 2.781c-5.504-4.906-12.16-2.933-18.738 2.902a47.9 47.9 0 00-2.918 2.856c-11.246 11.93-21.684 34.02-24.926 50.895 1.262 2.563 2.25 5.832 2.902 8.328.325 1.238.617 2.488.875 3.746 0 0-.101-.379-.515-1.578l-.266-.777a8.12 8.12 0 00-.176-.426c-.734-1.707-2.761-5.309-3.656-6.875a172.299 172.299 0 00-2.008 6.27c2.582 4.714 4.149 12.8 4.149 12.8s-.133-.527-.782-2.355c-.57-1.617-3.437-6.637-4.117-7.809-1.16 4.29-1.62 7.18-1.207 7.883.813 1.363 1.578 3.723 2.25 6.324 1.528 5.868 2.586 13.016 2.586 13.016l.094 1.192c-.203 4.886-.102 9.781.297 14.656.508 6.113 1.457 11.359 2.668 14.172l.824-.45c-1.781-5.535-2.504-12.792-2.184-21.155.477-12.79 3.422-28.215 8.856-44.29 9.191-24.261 21.938-43.733 33.602-53.034-10.63 9.601-25.023 40.695-29.332 52.203C79.404 74.162 75.99 86.252 73.93 97.84c3.555-10.863 15.043-15.527 15.043-15.527s5.637-6.954 12.223-16.883c-3.945.898-10.426 2.441-12.598 3.351-3.2 1.34-4.063 1.797-4.063 1.797s10.371-6.312 19.27-9.172c12.234-19.27 25.566-46.645 12.145-58.625M16.896 5.681c-5.398.02-9.77 4.39-9.785 9.789v88.574c.016 5.398 4.39 9.765 9.785 9.785h50.227a122.816 122.816 0 01-.277-14.438c-.031-.332-.059-.754-.086-1.067a143.095 143.095 0 00-2.523-12.684c-.645-2.507-1.465-4.789-1.965-5.636-.621-1.051-.524-1.653-.52-2.305 0-.64.082-1.305.2-2.059.316-1.878.73-3.738 1.246-5.574l1.156-.148c-.09-.188-.074-.348-.164-.516l-.219-2.031c.64-2.137 1.316-4.262 2.04-6.371l1.066-.102c-.043-.082-.055-.203-.098-.28l-.23-1.685c3.363-17.496 13.8-39.699 25.601-52.219.352-.37.711-.683 1.055-1.035z">
        </path>
    </symbol>
    <symbol id="aws" viewBox="0 0 128 128">
        <path fill="currentColor"
            d="M108.59 26.148c-1.852 0-3.622.211-5.305.715-1.684.504-3.117 1.223-4.379 2.188a10.829 10.829 0 0 0-3.031 3.453c-.757 1.348-1.137 2.906-1.137 4.676 0 2.187.716 4.25 2.106 6.105 1.386 1.895 3.66 3.324 6.734 4.293l6.106 1.895c2.062.675 3.496 1.391 4.254 2.191.757.801 1.136 1.765 1.136 2.945 0 1.726-.758 3.074-2.191 4-1.43.925-3.492 1.391-6.145 1.391-1.687 0-3.328-.168-5.011-.504a23.102 23.102 0 0 1-4.633-1.476c-.421-.168-.801-.336-1.051-.418a2.357 2.357 0 0 0-.758-.13c-.634 0-.969.423-.969 1.305v2.149a2.919 2.919 0 0 0 .254 1.18c.168.38.629.8 1.305 1.18 1.094.628 2.734 1.179 4.84 1.683 2.105.504 4.297.758 6.484.758 2.15 0 4.129-.297 6.024-.883 1.808-.551 3.367-1.309 4.672-2.36 1.304-1.01 2.316-2.273 3.074-3.707.714-1.429 1.094-3.07 1.094-4.882 0-2.188-.633-4.168-1.938-5.895-1.304-1.727-3.491-3.074-6.523-4.043l-5.98-1.895c-2.23-.713-3.79-1.516-4.634-2.316-.84-.797-1.261-1.808-1.261-2.988 0-1.726.671-2.95 1.98-3.746 1.305-.801 3.199-1.18 5.598-1.18 2.988 0 5.683.547 8.086 1.64.714.337 1.261.508 1.597.508.633 0 .969-.463.969-1.347v-1.98c0-.59-.125-1.051-.379-1.391-.25-.378-.672-.715-1.262-1.051-.422-.254-1.011-.504-1.77-.758a32.528 32.528 0 0 0-2.398-.676c-.886-.168-1.769-.336-2.738-.46a21.347 21.347 0 0 0-2.82-.169zm-86.822.082c-2.316 0-4.508.254-6.57.801-2.063.505-3.831 1.137-5.303 1.895-.59.297-.97.59-1.18.883-.211.296-.293.8-.293 1.476v2.063c0 .882.293 1.304.883 1.304.168 0 .378-.043.674-.125.293-.086.796-.254 1.472-.547a33.416 33.416 0 0 1 4.547-1.433A19.176 19.176 0 0 1 20.547 32c3.242 0 5.513.633 6.863 1.938 1.304 1.303 1.98 3.534 1.98 6.734v3.074c-1.683-.379-3.283-.715-4.843-.926-1.558-.21-3.031-.336-4.461-.336-4.34 0-7.75 1.094-10.316 3.286-2.571 2.187-3.832 5.093-3.832 8.671 0 3.368 1.05 6.063 3.113 8.086 2.066 2.02 4.887 3.032 8.422 3.032 4.97 0 9.097-1.938 12.379-5.813a34.153 34.153 0 0 0 1.304 2.484 13.28 13.28 0 0 0 1.516 1.98c.422.38.844.59 1.266.59.334 0 .714-.128 1.093-.378l2.653-1.77c.546-.42.8-.843.8-1.261a1.86 1.86 0 0 0-.293-.97 22.469 22.469 0 0 1-1.347-3.03c-.297-.925-.465-2.19-.465-3.75h-.086V40c0-4.633-1.176-8.086-3.492-10.36-2.36-2.273-6.025-3.41-11.033-3.41zm19.58 1.012c-.676 0-1.012.379-1.012 1.051 0 .297.129.844.379 1.687l9.894 32.547c.254.8.547 1.387.887 1.641.336.297.84.422 1.598.422h3.62c.759 0 1.347-.125 1.684-.422.34-.293.591-.84.801-1.684l6.485-27.117 6.527 27.16c.168.84.46 1.387.8 1.684.337.292.883.422 1.684.422h3.621c.715 0 1.262-.167 1.598-.422.34-.253.633-.8.887-1.64L90.949 30.02c.168-.46.25-.797.293-1.051.043-.254.086-.466.086-.676 0-.715-.379-1.05-1.055-1.05H86.36c-.757 0-1.308.166-1.644.421-.293.25-.59.8-.84 1.64L76.59 57.517l-6.653-28.211c-.166-.8-.464-1.39-.8-1.64-.336-.298-.884-.423-1.684-.423h-3.367c-.758 0-1.348.167-1.688.422-.335.25-.588.8-.796 1.64l-6.57 27.876-7.075-27.875c-.25-.8-.504-1.39-.84-1.64-.297-.298-.844-.423-1.644-.423h-4.125zM21.64 47.496a31.816 31.816 0 0 1 3.96.25 34.401 34.401 0 0 1 3.872.719v1.765c0 1.435-.168 2.653-.422 3.665-.25 1.01-.758 1.895-1.43 2.695-1.137 1.262-2.484 2.187-4 2.695-1.516.504-2.949.758-4.336.758-1.937 0-3.41-.508-4.422-1.559-1.054-1.01-1.558-2.484-1.558-4.464 0-2.106.675-3.704 2.062-4.84 1.391-1.137 3.454-1.684 6.274-1.684zM118 73.348c-4.432.063-9.664 1.052-13.621 3.832-1.223.883-1.012 2.062.336 1.894 4.508-.547 14.44-1.726 16.21.547 1.77 2.23-1.976 11.62-3.663 15.79-.504 1.26.59 1.769 1.726.8 7.41-6.231 9.348-19.242 7.832-21.137-.757-.925-4.388-1.79-8.82-1.726zM1.63 75.859c-.926.116-1.347 1.236-.368 2.121 16.508 14.902 38.359 23.872 62.613 23.872 17.305 0 37.43-5.43 51.281-15.66 2.273-1.689.298-4.254-2.02-3.204-15.533 6.57-32.421 9.77-47.788 9.77-22.778 0-44.8-6.273-62.653-16.633-.39-.231-.755-.304-1.064-.266z">
        </path>
    </symbol>
    <symbol id="docker" viewBox="0 0 128 128">
        <path
            d="M124.8 52.1c-4.3-2.5-10-2.8-14.8-1.4-.6-5.2-4-9.7-8-12.9l-1.6-1.3-1.4 1.6c-2.7 3.1-3.5 8.3-3.1 12.3.3 2.9 1.2 5.9 3 8.3-1.4.8-2.9 1.9-4.3 2.4-2.8 1-5.9 2-8.9 2H79V49H66V24H51v12H26v13H13v14H1.8l-.2 1.5c-.5 6.4.3 12.6 3 18.5l1.1 2.2.1.2c7.9 13.4 21.7 19 36.8 19 29.2 0 53.3-13.1 64.3-40.6 7.4.4 15-1.8 18.6-8.9l.9-1.8-1.6-1zM28 39h10v11H28V39zm13.1 44.2c0 1.7-1.4 3.1-3.1 3.1-1.7 0-3.1-1.4-3.1-3.1 0-1.7 1.4-3.1 3.1-3.1 1.7.1 3.1 1.4 3.1 3.1zM28 52h10v11H28V52zm-13 0h11v11H15V52zm27.7 50.2c-15.8-.1-24.3-5.4-31.3-12.4 2.1.1 4.1.2 5.9.2 1.6 0 3.2 0 4.7-.1 3.9-.2 7.3-.7 10.1-1.5 2.3 5.3 6.5 10.2 14 13.8h-3.4zM51 63H40V52h11v11zm0-13H40V39h11v11zm13 13H53V52h11v11zm0-13H53V39h11v11zm0-13H53V26h11v11zm13 26H66V52h11v11zM38.8 81.2c-.2-.1-.5-.2-.8-.2-1.2 0-2.2 1-2.2 2.2 0 1.2 1 2.2 2.2 2.2s2.2-1 2.2-2.2c0-.3-.1-.6-.2-.8-.2.3-.4.5-.8.5-.5 0-.9-.4-.9-.9.1-.4.3-.7.5-.8z"
            fill="currentColor"></path>
    </symbol>
    <symbol id="html5" viewBox="0 0 128 128">
        <path fill="currentColor"
            d="M9.032 2l10.005 112.093 44.896 12.401 45.02-12.387L118.968 2H9.032zm89.126 26.539l-.627 7.172L97.255 39H44.59l1.257 14h50.156l-.336 3.471-3.233 36.119-.238 2.27L64 102.609v.002l-.034.018-28.177-7.423L33.876 74h13.815l.979 10.919L63.957 89H64v-.546l15.355-3.875L80.959 67H33.261l-3.383-38.117L29.549 25h68.939l-.33 3.539z">
        </path>
    </symbol>
    <symbol id="css3" viewBox="0 0 128 128">
        <path fill="currentColor"
            d="M8.76 1l10.055 112.883 45.118 12.58 45.244-12.626L119.24 1H8.76zm89.591 25.862l-3.347 37.605.01.203-.014.467v-.004l-2.378 26.294-.262 2.336L64 101.607v.001l-.022.019-28.311-7.888L33.75 72h13.883l.985 11.054 15.386 4.17-.004.008v-.002l15.443-4.229L81.075 65H48.792l-.277-3.043-.631-7.129L47.553 51h34.749l1.264-14H30.64l-.277-3.041-.63-7.131L29.401 23h69.281l-.331 3.862z">
        </path>
    </symbol>
    <symbol id="sass" viewBox="0 0 128 128">
        <path fill-rule="evenodd" clip-rule="evenodd" fill="currentColor"
            d="M1.219 56.156c0 .703.207 1.167.323 1.618.756 2.933 2.381 5.45 4.309 7.746 2.746 3.272 6.109 5.906 9.554 8.383 2.988 2.148 6.037 4.248 9.037 6.38.515.366 1.002.787 1.561 1.236-.481.26-.881.489-1.297.7-3.959 2.008-7.768 4.259-11.279 6.986-2.116 1.644-4.162 3.391-5.607 5.674-2.325 3.672-3.148 7.584-1.415 11.761.506 1.22 1.278 2.274 2.367 3.053.353.252.749.502 1.162.6 1.058.249 2.136.412 3.207.609l3.033-.002c3.354-.299 6.407-1.448 9.166-3.352 4.312-2.976 7.217-6.966 8.466-12.087.908-3.722.945-7.448-.125-11.153a11.696 11.696 0 00-.354-1.014c-.13-.333-.283-.657-.463-1.072l6.876-3.954.103.088c-.125.409-.258.817-.371 1.23-.817 2.984-1.36 6.02-1.165 9.117.208 3.3 1.129 6.389 3.061 9.146 1.562 2.23 5.284 2.313 6.944.075.589-.795 1.16-1.626 1.589-2.513 1.121-2.315 2.159-4.671 3.23-7.011l.187-.428c-.077 1.108-.167 2.081-.208 3.055-.064 1.521.025 3.033.545 4.48.445 1.238 1.202 2.163 2.62 2.326.97.111 1.743-.333 2.456-.896a10.384 10.384 0 002.691-3.199c1.901-3.491 3.853-6.961 5.576-10.54 1.864-3.871 3.494-7.855 5.225-11.792l.286-.698c.409 1.607.694 3.181 1.219 4.671.61 1.729 1.365 3.417 2.187 5.058.389.775.344 1.278-.195 1.928-2.256 2.72-4.473 5.473-6.692 8.223-.491.607-.98 1.225-1.389 1.888a3.701 3.701 0 00-.48 1.364 1.737 1.737 0 001.383 1.971 9.661 9.661 0 002.708.193c3.097-.228 5.909-1.315 8.395-3.157 3.221-2.386 4.255-5.642 3.475-9.501-.211-1.047-.584-2.065-.947-3.074-.163-.455-.174-.774.123-1.198 2.575-3.677 4.775-7.578 6.821-11.569.081-.157.164-.314.306-.482.663 3.45 1.661 6.775 3.449 9.792-.912.879-1.815 1.676-2.632 2.554-1.799 1.934-3.359 4.034-4.173 6.595-.35 1.104-.619 2.226-.463 3.405.242 1.831 1.742 3.021 3.543 2.604 3.854-.892 7.181-2.708 9.612-5.925 1.636-2.166 1.785-4.582 1.1-7.113-.188-.688-.411-1.365-.651-2.154.951-.295 1.878-.649 2.837-.868 4.979-1.136 9.904-.938 14.702.86 2.801 1.05 5.064 2.807 6.406 5.571 1.639 3.379.733 6.585-2.452 8.721-.297.199-.637.356-.883.605a.869.869 0 00-.205.67c.021.123.346.277.533.275 1.047-.008 1.896-.557 2.711-1.121 2.042-1.413 3.532-3.314 3.853-5.817l.063-.188-.077-1.63c-.031-.094.023-.187.016-.258-.434-3.645-2.381-6.472-5.213-8.688-3.28-2.565-7.153-3.621-11.249-3.788a25.401 25.401 0 00-9.765 1.503c-.897.325-1.786.71-2.688 1.073-.121-.219-.251-.429-.358-.646-.926-1.896-2.048-3.708-2.296-5.882-.176-1.544-.392-3.086-.025-4.613.353-1.469.813-2.913 1.246-4.362.223-.746.066-1.164-.646-1.5a2.854 2.854 0 00-.786-.258c-1.75-.254-3.476-.109-5.171.384-.6.175-1.036.511-1.169 1.175-.076.381-.231.746-.339 1.122-.443 1.563-.757 3.156-1.473 4.645-1.794 3.735-3.842 7.329-5.938 10.897-.227.385-.466.763-.752 1.23-.736-1.54-1.521-2.922-1.759-4.542-.269-1.832-.481-3.661-.025-5.479.339-1.356.782-2.687 1.19-4.025.193-.636.104-.97-.472-1.305-.291-.169-.62-.319-.948-.368a11.643 11.643 0 00-5.354.438c-.543.176-.828.527-.994 1.087-.488 1.652-.904 3.344-1.589 4.915-2.774 6.36-5.628 12.687-8.479 19.013-.595 1.321-1.292 2.596-1.963 3.882-.17.326-.418.613-.63.919-.17-.201-.236-.339-.235-.477.005-.813-.092-1.65.063-2.436a172.189 172.189 0 011.578-7.099c.47-1.946 1.017-3.874 1.538-5.807.175-.647.178-1.252-.287-1.796-.781-.911-2.413-1.111-3.381-.409l-.428.242.083-.69c.204-1.479.245-2.953-.161-4.41-.506-1.816-1.802-2.861-3.686-2.803-.878.027-1.8.177-2.613.497-3.419 1.34-6.048 3.713-8.286 6.568a2.592 2.592 0 01-.757.654c-2.893 1.604-5.795 3.188-8.696 4.778l-3.229 1.769c-.866-.826-1.653-1.683-2.546-2.41-2.727-2.224-5.498-4.393-8.244-6.592-2.434-1.949-4.792-3.979-6.596-6.56-1.342-1.92-2.207-4.021-2.29-6.395-.105-3.025.753-5.789 2.293-8.362 1.97-3.292 4.657-5.934 7.611-8.327 3.125-2.53 6.505-4.678 10.008-6.639 4.901-2.743 9.942-5.171 15.347-6.774 5.542-1.644 11.165-2.585 16.965-1.929 2.28.258 4.494.78 6.527 1.895 1.557.853 2.834 1.97 3.428 3.716.586 1.718.568 3.459.162 5.204-.825 3.534-2.76 6.447-5.195 9.05-3.994 4.267-8.866 7.172-14.351 9.091a39.478 39.478 0 01-9.765 2.083c-2.729.229-5.401-.013-7.985-.962-1.711-.629-3.201-1.591-4.399-2.987-.214-.25-.488-.521-.887-.287-.391.23-.46.602-.329.979.219.626.421 1.278.762 1.838.857 1.405 2.107 2.424 3.483 3.298 2.643 1.681 5.597 2.246 8.66 2.377 4.648.201 9.183-.493 13.654-1.74 6.383-1.78 11.933-4.924 16.384-9.884 3.706-4.13 6.353-8.791 6.92-14.419.277-2.747-.018-5.438-1.304-7.944-1.395-2.715-3.613-4.734-6.265-6.125C68.756 18.179 64.588 17 60.286 17h-4.31c-5.21 0-10.247 1.493-15.143 3.274-3.706 1.349-7.34 2.941-10.868 4.703-7.683 3.839-14.838 8.468-20.715 14.833-2.928 3.171-5.407 6.67-6.833 10.79a40.494 40.494 0 00-1.111 3.746m27.839 36.013c-.333 4.459-2.354 8.074-5.657 11.002-1.858 1.646-3.989 2.818-6.471 3.23-.9.149-1.821.185-2.694-.188-1.245-.532-1.524-1.637-1.548-2.814-.037-1.876.62-3.572 1.521-5.186 1.176-2.104 2.9-3.708 4.741-5.206 2.9-2.361 6.046-4.359 9.268-6.245l.243-.1c.498 1.84.735 3.657.597 5.507zM54.303 70.98c-.235 1.424-.529 2.849-.945 4.229-1.438 4.777-3.285 9.406-5.282 13.973-.369.845-.906 1.616-1.373 2.417a1.689 1.689 0 01-.283.334c-.578.571-1.126.541-1.418-.206-.34-.868-.549-1.797-.729-2.716-.121-.617-.092-1.265-.13-1.897.039-4.494 1.41-8.578 3.736-12.38.959-1.568 2.003-3.062 3.598-4.054a6.27 6.27 0 011.595-.706c.85-.239 1.372.154 1.231 1.006zm17.164 21.868l6.169-7.203c.257 2.675-4.29 8.015-6.169 7.203zm19.703-4.847c-.436.25-.911.43-1.358.661-.409.212-.544-.002-.556-.354a2.385 2.385 0 01.093-.721c.833-2.938 2.366-5.446 4.647-7.486l.16-.082c1.085 3.035-.169 6.368-2.986 7.982z">
        </path>
    </symbol>
    <symbol id="tailwindcss" viewBox="0 0 128 128">
        <path
            d="M64.004 25.602c-17.067 0-27.73 8.53-32 25.597 6.398-8.531 13.867-11.73 22.398-9.597 4.871 1.214 8.352 4.746 12.207 8.66C72.883 56.629 80.145 64 96.004 64c17.066 0 27.73-8.531 32-25.602-6.399 8.536-13.867 11.735-22.399 9.602-4.87-1.215-8.347-4.746-12.207-8.66-6.27-6.367-13.53-13.738-29.394-13.738zM32.004 64c-17.066 0-27.73 8.531-32 25.602C6.402 81.066 13.87 77.867 22.402 80c4.871 1.215 8.352 4.746 12.207 8.66 6.274 6.367 13.536 13.738 29.395 13.738 17.066 0 27.73-8.53 32-25.597-6.399 8.531-13.867 11.73-22.399 9.597-4.87-1.214-8.347-4.746-12.207-8.66C55.128 71.371 47.868 64 32.004 64zm0 0"
            fill="currentColor"></path>
    </symbol>
  </defs>
</svg>